<mxfile host="app.diagrams.net" agent="Mozilla/5.0 (Windows NT 10.0; Win64; x64) AppleWebKit/537.36 (KHTML, like Gecko) Chrome/133.0.0.0 Safari/537.36 OPR/118.0.0.0 (Edition std-2)" version="27.0.9">
  <diagram name="Página-1" id="Ia4WLMf5UdD5HZQBgZ0k">
    <mxGraphModel grid="1" page="1" gridSize="10" guides="1" tooltips="1" connect="1" arrows="1" fold="1" pageScale="1" pageWidth="827" pageHeight="1169" math="0" shadow="0">
      <root>
        <mxCell id="0" />
        <mxCell id="1" parent="0" />
        <mxCell id="chtYdN5kssD6F8qSMGiq-2" value="View (Flutter UI)" style="swimlane;fontStyle=0;childLayout=stackLayout;horizontal=1;startSize=40;horizontalStack=0;resizeParent=1;resizeParentMax=0;resizeLast=0;collapsible=1;marginBottom=0;whiteSpace=wrap;html=1;rounded=0;shadow=0;fillColor=#dae8fc;strokeColor=light-dark(#6c8ebf, #282828);swimlaneFillColor=default;" vertex="1" parent="1">
          <mxGeometry x="40" y="60" width="220" height="160" as="geometry" />
        </mxCell>
        <mxCell id="chtYdN5kssD6F8qSMGiq-3" value="Tela Criar Ficha (Personagem/Inimigo)" style="text;strokeColor=none;fillColor=none;align=center;verticalAlign=middle;spacingLeft=4;spacingRight=4;overflow=hidden;points=[[0,0.5],[1,0.5]];portConstraint=eastwest;rotatable=0;whiteSpace=wrap;html=1;" vertex="1" parent="chtYdN5kssD6F8qSMGiq-2">
          <mxGeometry y="40" width="220" height="30" as="geometry" />
        </mxCell>
        <mxCell id="chtYdN5kssD6F8qSMGiq-4" value="Tela Configurar Batalha" style="text;strokeColor=none;fillColor=none;align=center;verticalAlign=middle;spacingLeft=4;spacingRight=4;overflow=hidden;points=[[0,0.5],[1,0.5]];portConstraint=eastwest;rotatable=0;whiteSpace=wrap;html=1;" vertex="1" parent="chtYdN5kssD6F8qSMGiq-2">
          <mxGeometry y="70" width="220" height="30" as="geometry" />
        </mxCell>
        <mxCell id="chtYdN5kssD6F8qSMGiq-5" value="Tela Gerenciar Grupos" style="text;strokeColor=none;fillColor=none;align=center;verticalAlign=middle;spacingLeft=4;spacingRight=4;overflow=hidden;points=[[0,0.5],[1,0.5]];portConstraint=eastwest;rotatable=0;whiteSpace=wrap;html=1;" vertex="1" parent="chtYdN5kssD6F8qSMGiq-2">
          <mxGeometry y="100" width="220" height="30" as="geometry" />
        </mxCell>
        <mxCell id="chtYdN5kssD6F8qSMGiq-6" value="Tela Batalha" style="text;html=1;align=center;verticalAlign=middle;whiteSpace=wrap;rounded=0;" vertex="1" parent="chtYdN5kssD6F8qSMGiq-2">
          <mxGeometry y="130" width="220" height="30" as="geometry" />
        </mxCell>
        <mxCell id="chtYdN5kssD6F8qSMGiq-8" value="Controller" style="swimlane;fontStyle=0;childLayout=stackLayout;horizontal=1;startSize=40;horizontalStack=0;resizeParent=1;resizeParentMax=0;resizeLast=0;collapsible=1;marginBottom=0;whiteSpace=wrap;html=1;rounded=0;shadow=0;fillColor=#d5e8d4;strokeColor=#82b366;" vertex="1" parent="1">
          <mxGeometry x="300" y="60" width="200" height="160" as="geometry" />
        </mxCell>
        <mxCell id="chtYdN5kssD6F8qSMGiq-9" value="PersonagemController" style="text;strokeColor=none;fillColor=none;align=center;verticalAlign=middle;spacingLeft=4;spacingRight=4;overflow=hidden;points=[[0,0.5],[1,0.5]];portConstraint=eastwest;rotatable=0;whiteSpace=wrap;html=1;" vertex="1" parent="chtYdN5kssD6F8qSMGiq-8">
          <mxGeometry y="40" width="200" height="30" as="geometry" />
        </mxCell>
        <mxCell id="chtYdN5kssD6F8qSMGiq-10" value="InimigoController" style="text;strokeColor=none;fillColor=none;align=center;verticalAlign=middle;spacingLeft=4;spacingRight=4;overflow=hidden;points=[[0,0.5],[1,0.5]];portConstraint=eastwest;rotatable=0;whiteSpace=wrap;html=1;" vertex="1" parent="chtYdN5kssD6F8qSMGiq-8">
          <mxGeometry y="70" width="200" height="30" as="geometry" />
        </mxCell>
        <mxCell id="chtYdN5kssD6F8qSMGiq-11" value="BatalhaController" style="text;strokeColor=none;fillColor=none;align=center;verticalAlign=middle;spacingLeft=4;spacingRight=4;overflow=hidden;points=[[0,0.5],[1,0.5]];portConstraint=eastwest;rotatable=0;whiteSpace=wrap;html=1;" vertex="1" parent="chtYdN5kssD6F8qSMGiq-8">
          <mxGeometry y="100" width="200" height="30" as="geometry" />
        </mxCell>
        <mxCell id="chtYdN5kssD6F8qSMGiq-12" value="GrupoController" style="text;html=1;align=center;verticalAlign=middle;whiteSpace=wrap;rounded=0;" vertex="1" parent="chtYdN5kssD6F8qSMGiq-8">
          <mxGeometry y="130" width="200" height="30" as="geometry" />
        </mxCell>
        <mxCell id="chtYdN5kssD6F8qSMGiq-13" value="Model (Domain / Application Logic)" style="swimlane;fontStyle=0;childLayout=stackLayout;horizontal=1;startSize=40;horizontalStack=0;resizeParent=1;resizeParentMax=0;resizeLast=0;collapsible=1;marginBottom=0;whiteSpace=wrap;html=1;rounded=0;shadow=0;fillColor=#ffe6cc;strokeColor=#d79b00;" vertex="1" parent="1">
          <mxGeometry x="540" y="60" width="220" height="340" as="geometry" />
        </mxCell>
        <mxCell id="chtYdN5kssD6F8qSMGiq-14" value="Personagem (Entidade)" style="text;strokeColor=none;fillColor=none;align=center;verticalAlign=middle;spacingLeft=4;spacingRight=4;overflow=hidden;points=[[0,0.5],[1,0.5]];portConstraint=eastwest;rotatable=0;whiteSpace=wrap;html=1;" vertex="1" parent="chtYdN5kssD6F8qSMGiq-13">
          <mxGeometry y="40" width="220" height="30" as="geometry" />
        </mxCell>
        <mxCell id="chtYdN5kssD6F8qSMGiq-15" value="Inimigo (Entidade)" style="text;strokeColor=none;fillColor=none;align=center;verticalAlign=middle;spacingLeft=4;spacingRight=4;overflow=hidden;points=[[0,0.5],[1,0.5]];portConstraint=eastwest;rotatable=0;whiteSpace=wrap;html=1;" vertex="1" parent="chtYdN5kssD6F8qSMGiq-13">
          <mxGeometry y="70" width="220" height="30" as="geometry" />
        </mxCell>
        <mxCell id="chtYdN5kssD6F8qSMGiq-16" value="Habilidade (Entidade/VO)" style="text;strokeColor=none;fillColor=none;align=center;verticalAlign=middle;spacingLeft=4;spacingRight=4;overflow=hidden;points=[[0,0.5],[1,0.5]];portConstraint=eastwest;rotatable=0;whiteSpace=wrap;html=1;" vertex="1" parent="chtYdN5kssD6F8qSMGiq-13">
          <mxGeometry y="100" width="220" height="30" as="geometry" />
        </mxCell>
        <mxCell id="chtYdN5kssD6F8qSMGiq-17" value="Atributo (Entidade/VO)" style="text;html=1;align=center;verticalAlign=middle;whiteSpace=wrap;rounded=0;" vertex="1" parent="chtYdN5kssD6F8qSMGiq-13">
          <mxGeometry y="130" width="220" height="30" as="geometry" />
        </mxCell>
        <mxCell id="chtYdN5kssD6F8qSMGiq-18" value="Item (Entidade/VO)" style="text;html=1;align=center;verticalAlign=middle;whiteSpace=wrap;rounded=0;" vertex="1" parent="chtYdN5kssD6F8qSMGiq-13">
          <mxGeometry y="160" width="220" height="30" as="geometry" />
        </mxCell>
        <mxCell id="chtYdN5kssD6F8qSMGiq-19" value="GrupoPersonagem (Entidade)" style="text;html=1;align=center;verticalAlign=middle;whiteSpace=wrap;rounded=0;" vertex="1" parent="chtYdN5kssD6F8qSMGiq-13">
          <mxGeometry y="190" width="220" height="30" as="geometry" />
        </mxCell>
        <mxCell id="chtYdN5kssD6F8qSMGiq-20" value="GrupoInimigo (Entidade)" style="text;html=1;align=center;verticalAlign=middle;whiteSpace=wrap;rounded=0;" vertex="1" parent="chtYdN5kssD6F8qSMGiq-13">
          <mxGeometry y="220" width="220" height="30" as="geometry" />
        </mxCell>
        <mxCell id="chtYdN5kssD6F8qSMGiq-21" value="Batalha (Entidade)" style="text;html=1;align=center;verticalAlign=middle;whiteSpace=wrap;rounded=0;" vertex="1" parent="chtYdN5kssD6F8qSMGiq-13">
          <mxGeometry y="250" width="220" height="30" as="geometry" />
        </mxCell>
        <mxCell id="chtYdN5kssD6F8qSMGiq-22" value="CenarioBatalha (Entidade/VO)" style="text;html=1;align=center;verticalAlign=middle;whiteSpace=wrap;rounded=0;" vertex="1" parent="chtYdN5kssD6F8qSMGiq-13">
          <mxGeometry y="280" width="220" height="30" as="geometry" />
        </mxCell>
        <mxCell id="chtYdN5kssD6F8qSMGiq-23" value="ServiçoBatalha (Application Service)" style="text;html=1;align=center;verticalAlign=middle;whiteSpace=wrap;rounded=0;fillColor=#fff2cc;strokeColor=#d6b656;" vertex="1" parent="chtYdN5kssD6F8qSMGiq-13">
          <mxGeometry y="310" width="220" height="30" as="geometry" />
        </mxCell>
        <mxCell id="chtYdN5kssD6F8qSMGiq-24" value="Repository" style="swimlane;fontStyle=0;childLayout=stackLayout;horizontal=1;startSize=40;horizontalStack=0;resizeParent=1;resizeParentMax=0;resizeLast=0;collapsible=1;marginBottom=0;whiteSpace=wrap;html=1;rounded=0;shadow=0;fillColor=#f8cecc;strokeColor=#b85450;" vertex="1" parent="1">
          <mxGeometry x="800" y="60" width="200" height="190" as="geometry" />
        </mxCell>
        <mxCell id="chtYdN5kssD6F8qSMGiq-25" value="PersonagemRepository" style="text;html=1;align=center;verticalAlign=middle;whiteSpace=wrap;rounded=0;" vertex="1" parent="chtYdN5kssD6F8qSMGiq-24">
          <mxGeometry y="40" width="200" height="30" as="geometry" />
        </mxCell>
        <mxCell id="chtYdN5kssD6F8qSMGiq-26" value="InimigoRepository" style="text;html=1;align=center;verticalAlign=middle;whiteSpace=wrap;rounded=0;" vertex="1" parent="chtYdN5kssD6F8qSMGiq-24">
          <mxGeometry y="70" width="200" height="30" as="geometry" />
        </mxCell>
        <mxCell id="chtYdN5kssD6F8qSMGiq-27" value="GrupoRepository" style="text;html=1;align=center;verticalAlign=middle;whiteSpace=wrap;rounded=0;" vertex="1" parent="chtYdN5kssD6F8qSMGiq-24">
          <mxGeometry y="100" width="200" height="30" as="geometry" />
        </mxCell>
        <mxCell id="chtYdN5kssD6F8qSMGiq-28" value="BatalhaRepository" style="text;html=1;align=center;verticalAlign=middle;whiteSpace=wrap;rounded=0;" vertex="1" parent="chtYdN5kssD6F8qSMGiq-24">
          <mxGeometry y="130" width="200" height="30" as="geometry" />
        </mxCell>
        <mxCell id="chtYdN5kssD6F8qSMGiq-29" value="CenarioRepository" style="text;html=1;align=center;verticalAlign=middle;whiteSpace=wrap;rounded=0;" vertex="1" parent="chtYdN5kssD6F8qSMGiq-24">
          <mxGeometry y="160" width="200" height="30" as="geometry" />
        </mxCell>
        <mxCell id="chtYdN5kssD6F8qSMGiq-30" value="Banco de Dados" style="swimlane;fontStyle=0;childLayout=stackLayout;horizontal=1;startSize=40;horizontalStack=0;resizeParent=1;resizeParentMax=0;resizeLast=0;collapsible=1;marginBottom=0;whiteSpace=wrap;html=1;rounded=0;shadow=0;fillColor=#e6e6e6;strokeColor=#333333;" vertex="1" parent="1">
          <mxGeometry x="1040" y="115" width="180" height="90" as="geometry" />
        </mxCell>
        <mxCell id="chtYdN5kssD6F8qSMGiq-31" value="SQLite Database" style="shape=cylinder3;whiteSpace=wrap;html=1;boundedLbl=1;backgroundOutline=1;size=15;fillColor=#bac8d3;strokeColor=#23445d;" vertex="1" parent="chtYdN5kssD6F8qSMGiq-30">
          <mxGeometry y="40" width="180" height="50" as="geometry" />
        </mxCell>
        <mxCell id="chtYdN5kssD6F8qSMGiq-32" style="endArrow=open;html=1;rounded=0;dashed=1;strokeColor=#6c8ebf;" edge="1" parent="1" source="chtYdN5kssD6F8qSMGiq-3" target="chtYdN5kssD6F8qSMGiq-9">
          <mxGeometry relative="1" as="geometry" />
        </mxCell>
        <mxCell id="chtYdN5kssD6F8qSMGiq-37" style="endArrow=open;html=1;rounded=0;dashed=1;strokeColor=#82b366;" edge="1" parent="1" source="chtYdN5kssD6F8qSMGiq-9" target="chtYdN5kssD6F8qSMGiq-14">
          <mxGeometry relative="1" as="geometry" />
        </mxCell>
        <mxCell id="chtYdN5kssD6F8qSMGiq-44" style="endArrow=open;html=1;rounded=0;dashed=1;strokeColor=#d79b00;" edge="1" parent="1" source="chtYdN5kssD6F8qSMGiq-14" target="chtYdN5kssD6F8qSMGiq-25">
          <mxGeometry relative="1" as="geometry" />
        </mxCell>
        <mxCell id="chtYdN5kssD6F8qSMGiq-51" style="endArrow=open;html=1;rounded=0;dashed=1;strokeColor=#b85450;entryX=0;entryY=0.25;entryDx=0;entryDy=0;exitX=1;exitY=0.25;exitDx=0;exitDy=0;" edge="1" parent="1" source="chtYdN5kssD6F8qSMGiq-26" target="chtYdN5kssD6F8qSMGiq-30">
          <mxGeometry relative="1" as="geometry">
            <mxPoint x="1040" y="175" as="targetPoint" />
          </mxGeometry>
        </mxCell>
        <mxCell id="chtYdN5kssD6F8qSMGiq-60" style="endArrow=open;html=1;rounded=0;dashed=1;strokeColor=#000000;" edge="1" parent="1" source="chtYdN5kssD6F8qSMGiq-21" target="chtYdN5kssD6F8qSMGiq-20">
          <mxGeometry relative="1" as="geometry" />
        </mxCell>
        <mxCell id="chtYdN5kssD6F8qSMGiq-61" style="endArrow=open;html=1;rounded=0;dashed=1;strokeColor=#000000;" edge="1" parent="1" source="chtYdN5kssD6F8qSMGiq-21" target="chtYdN5kssD6F8qSMGiq-22">
          <mxGeometry relative="1" as="geometry" />
        </mxCell>
        <mxCell id="chtYdN5kssD6F8qSMGiq-62" style="endArrow=open;html=1;rounded=0;dashed=1;strokeColor=#d79b00;entryX=1;entryY=0.5;entryDx=0;entryDy=0;exitX=0;exitY=0.5;exitDx=0;exitDy=0;" edge="1" parent="1" source="chtYdN5kssD6F8qSMGiq-16" target="chtYdN5kssD6F8qSMGiq-11">
          <mxGeometry relative="1" as="geometry">
            <mxPoint x="760" y="60" as="sourcePoint" />
            <mxPoint x="800" y="60" as="targetPoint" />
          </mxGeometry>
        </mxCell>
        <mxCell id="chtYdN5kssD6F8qSMGiq-63" style="endArrow=open;html=1;rounded=0;dashed=1;strokeColor=#82b366;entryX=1;entryY=0.5;entryDx=0;entryDy=0;exitX=0;exitY=0.5;exitDx=0;exitDy=0;" edge="1" parent="1" source="chtYdN5kssD6F8qSMGiq-11" target="chtYdN5kssD6F8qSMGiq-5">
          <mxGeometry relative="1" as="geometry">
            <mxPoint x="510" y="50" as="sourcePoint" />
            <mxPoint x="550" y="50" as="targetPoint" />
          </mxGeometry>
        </mxCell>
        <mxCell id="chtYdN5kssD6F8qSMGiq-64" style="endArrow=open;html=1;rounded=0;dashed=1;strokeColor=#b85450;entryX=1;entryY=0.5;entryDx=0;entryDy=0;exitX=0;exitY=0.5;exitDx=0;exitDy=0;" edge="1" parent="1" source="chtYdN5kssD6F8qSMGiq-27" target="chtYdN5kssD6F8qSMGiq-16">
          <mxGeometry relative="1" as="geometry">
            <mxPoint x="1010" y="240" as="sourcePoint" />
            <mxPoint x="1050" y="240" as="targetPoint" />
          </mxGeometry>
        </mxCell>
        <mxCell id="chtYdN5kssD6F8qSMGiq-66" style="endArrow=open;html=1;rounded=0;dashed=1;strokeColor=light-dark(#39454E,#39454E);entryX=1;entryY=0.331;entryDx=0;entryDy=0;exitX=0;exitY=0;exitDx=0;exitDy=15;exitPerimeter=0;entryPerimeter=0;" edge="1" parent="1" source="chtYdN5kssD6F8qSMGiq-31" target="chtYdN5kssD6F8qSMGiq-27">
          <mxGeometry relative="1" as="geometry">
            <mxPoint x="1020" y="90" as="sourcePoint" />
            <mxPoint x="1060" y="90" as="targetPoint" />
          </mxGeometry>
        </mxCell>
        <mxCell id="Hg0K2_gi8N2UaeYa8zhC-8" value="" style="rounded=1;whiteSpace=wrap;html=1;" vertex="1" parent="1">
          <mxGeometry x="50" y="450" width="390" height="380" as="geometry" />
        </mxCell>
        <mxCell id="Hg0K2_gi8N2UaeYa8zhC-9" value="&lt;font style=&quot;color: light-dark(rgb(0, 0, 0), rgb(255, 255, 255));&quot;&gt;Azul&lt;/font&gt;" style="rounded=0;whiteSpace=wrap;html=1;fillColor=light-dark(#1ba1e2, #1d293b);fontColor=#ffffff;strokeColor=light-dark(#6c8ebf, #282828);" vertex="1" parent="1">
          <mxGeometry x="80" y="490" width="120" height="35" as="geometry" />
        </mxCell>
        <mxCell id="Hg0K2_gi8N2UaeYa8zhC-10" value="View" style="text;html=1;align=left;verticalAlign=middle;whiteSpace=wrap;rounded=0;" vertex="1" parent="1">
          <mxGeometry x="230" y="492.5" width="320" height="30" as="geometry" />
        </mxCell>
        <mxCell id="Hg0K2_gi8N2UaeYa8zhC-12" value="Controller" style="text;html=1;align=left;verticalAlign=middle;whiteSpace=wrap;rounded=0;" vertex="1" parent="1">
          <mxGeometry x="230" y="542.5" width="320" height="30" as="geometry" />
        </mxCell>
        <mxCell id="Hg0K2_gi8N2UaeYa8zhC-14" value="Model" style="text;html=1;align=left;verticalAlign=middle;whiteSpace=wrap;rounded=0;" vertex="1" parent="1">
          <mxGeometry x="230" y="592.5" width="320" height="30" as="geometry" />
        </mxCell>
        <mxCell id="Hg0K2_gi8N2UaeYa8zhC-16" value="Repository" style="text;html=1;align=left;verticalAlign=middle;whiteSpace=wrap;rounded=0;" vertex="1" parent="1">
          <mxGeometry x="230" y="642.5" width="320" height="30" as="geometry" />
        </mxCell>
        <mxCell id="Hg0K2_gi8N2UaeYa8zhC-18" value="View" style="text;html=1;align=left;verticalAlign=middle;whiteSpace=wrap;rounded=0;" vertex="1" parent="1">
          <mxGeometry x="230" y="692.5" width="320" height="30" as="geometry" />
        </mxCell>
        <mxCell id="Hg0K2_gi8N2UaeYa8zhC-19" value="" style="endArrow=open;html=1;rounded=0;dashed=1;strokeColor=#000000;" edge="1" parent="1">
          <mxGeometry width="50" height="50" relative="1" as="geometry">
            <mxPoint x="86.14999999999998" y="760" as="sourcePoint" />
            <mxPoint x="193.8423076923076" y="760" as="targetPoint" />
          </mxGeometry>
        </mxCell>
        <mxCell id="Hg0K2_gi8N2UaeYa8zhC-21" value="Representa o fluxo de dados e/ou a chamada de métodos." style="text;html=1;align=left;verticalAlign=middle;whiteSpace=wrap;rounded=0;" vertex="1" parent="1">
          <mxGeometry x="230" y="750" width="180" height="30" as="geometry" />
        </mxCell>
        <mxCell id="fzJGOdK4y76tn56fZzHc-1" value="&lt;font style=&quot;color: light-dark(rgb(0, 0, 0), rgb(255, 255, 255));&quot;&gt;Verde&lt;/font&gt;" style="rounded=0;whiteSpace=wrap;html=1;fillColor=#d5e8d4;strokeColor=#82b366;gradientColor=#97d077;" vertex="1" parent="1">
          <mxGeometry x="80" y="540" width="120" height="35" as="geometry" />
        </mxCell>
        <mxCell id="fzJGOdK4y76tn56fZzHc-2" value="&lt;font style=&quot;color: light-dark(rgb(0, 0, 0), rgb(255, 255, 255));&quot;&gt;Amarelo&lt;/font&gt;" style="rounded=0;whiteSpace=wrap;html=1;fillColor=#e3c800;fontColor=#000000;strokeColor=#B09500;" vertex="1" parent="1">
          <mxGeometry x="80" y="590" width="120" height="35" as="geometry" />
        </mxCell>
        <mxCell id="fzJGOdK4y76tn56fZzHc-3" value="&lt;font style=&quot;color: light-dark(rgb(0, 0, 0), rgb(255, 255, 255));&quot;&gt;Repository&lt;/font&gt;" style="rounded=0;whiteSpace=wrap;html=1;fillColor=#f8cecc;strokeColor=#b85450;gradientColor=#ea6b66;" vertex="1" parent="1">
          <mxGeometry x="80" y="640" width="120" height="35" as="geometry" />
        </mxCell>
        <mxCell id="fzJGOdK4y76tn56fZzHc-4" value="&lt;font style=&quot;color: light-dark(rgb(0, 0, 0), rgb(253, 253, 253));&quot;&gt;Cinza&lt;/font&gt;" style="rounded=0;whiteSpace=wrap;html=1;fillColor=#f9f7ed;strokeColor=#36393d;" vertex="1" parent="1">
          <mxGeometry x="80" y="692.5" width="120" height="35" as="geometry" />
        </mxCell>
      </root>
    </mxGraphModel>
  </diagram>
</mxfile>
